<?xml version="1.0" standalone="no"?>
<!DOCTYPE svg PUBLIC "-//W3C//DTD SVG 20010904//EN"
 "http://www.w3.org/TR/2001/REC-SVG-20010904/DTD/svg10.dtd">
<svg version="1.0" xmlns="http://www.w3.org/2000/svg"
 width="611.000000pt" height="611.000000pt" viewBox="0 0 611.000000 611.000000"
 preserveAspectRatio="xMidYMid meet">
<metadata>
Created by potrace 1.11, written by Peter Selinger 2001-2013
</metadata>
<g transform="translate(0.000000,611.000000) scale(0.100000,-0.100000)"
fill="#000000" stroke="none">
<path d="M2880 5560 c-126 -26 -269 -92 -439 -204 -300 -197 -360 -223 -656
-286 -328 -70 -445 -115 -565 -216 -60 -51 -123 -136 -158 -214 -28 -63 -76
-223 -108 -365 -35 -158 -91 -342 -115 -383 -10 -18 -19 -39 -20 -45 0 -7 -33
-64 -74 -127 -235 -366 -263 -417 -291 -538 -15 -63 -21 -202 -11 -248 34
-150 77 -234 268 -529 109 -168 154 -258 180 -360 4 -16 14 -55 22 -85 8 -30
24 -98 36 -150 12 -52 23 -104 26 -115 67 -296 175 -458 369 -554 92 -46 280
-101 496 -146 87 -18 199 -55 277 -90 17 -8 34 -15 38 -15 4 0 19 -9 33 -19
15 -10 30 -19 35 -20 4 0 31 -15 60 -33 71 -44 68 -42 203 -129 66 -42 146
-90 179 -107 229 -115 437 -101 700 47 46 26 168 103 175 111 9 9 162 101 225
136 68 37 168 74 265 99 66 17 74 19 145 34 160 34 200 43 221 51 13 5 24 8
24 5 0 -10 171 65 221 97 78 50 93 64 148 133 82 104 129 225 186 479 56 246
89 348 153 471 20 39 39 72 42 75 3 3 33 48 65 100 33 52 63 97 66 100 20 16
143 247 165 310 35 100 45 283 20 359 -9 27 -16 55 -16 61 0 21 -96 206 -147
282 -26 40 -50 78 -53 83 -3 6 -21 35 -41 65 -59 89 -126 220 -153 297 -13 40
-48 172 -76 295 -68 291 -111 404 -187 497 -65 78 -103 109 -191 156 -83 44
-160 68 -416 130 -291 71 -380 105 -544 205 -40 25 -82 50 -92 56 -11 6 -28
18 -38 27 -10 10 -21 17 -25 17 -3 0 -32 17 -64 39 -54 35 -227 130 -238 130
-3 0 -31 7 -63 16 -62 18 -207 27 -262 15z m341 -631 c30 -5 65 -11 79 -13 14
-2 48 -9 75 -15 28 -6 61 -13 74 -15 14 -3 74 -22 135 -42 216 -71 443 -195
598 -327 36 -31 69 -53 73 -49 4 4 5 2 3 -4 -2 -5 21 -32 51 -60 236 -216 466
-625 526 -934 2 -8 8 -33 13 -55 10 -38 19 -103 28 -205 2 -25 5 -101 5 -170
0 -155 -6 -214 -42 -390 -80 -392 -308 -774 -623 -1045 -26 -22 -53 -46 -61
-52 -33 -31 -210 -145 -286 -186 -196 -103 -361 -158 -608 -202 -108 -19 -343
-25 -461 -12 -118 13 -144 18 -250 43 -58 14 -116 27 -129 30 -13 3 -34 10
-45 16 -12 6 -23 11 -26 11 -3 -1 -20 5 -39 13 -18 8 -35 14 -37 14 -2 0 -34
14 -71 31 -38 17 -79 37 -93 43 -26 12 -168 94 -185 108 -5 4 -48 36 -95 70
-105 77 -248 219 -363 357 -9 12 -17 25 -17 30 0 5 -4 11 -8 13 -5 2 -29 35
-55 75 -101 158 -173 312 -226 488 -33 108 -35 117 -56 245 -42 249 -31 522
31 762 19 74 71 234 88 273 52 114 76 161 127 248 32 54 65 105 74 113 8 9 15
19 15 22 0 4 12 21 28 38 15 16 45 52 67 79 51 62 194 201 265 257 254 204
623 360 935 394 28 3 52 7 53 9 8 8 382 2 433 -6z"/>
<path d="M2887 4864 c-1 -1 -38 -4 -82 -8 -70 -5 -113 -11 -215 -31 -14 -3
-40 -8 -57 -11 -18 -3 -33 -10 -33 -16 0 -5 -4 -7 -9 -3 -15 9 -184 -52 -308
-110 -187 -89 -348 -202 -499 -352 -118 -118 -176 -191 -282 -358 -60 -95
-154 -321 -192 -460 -70 -259 -73 -602 -6 -882 2 -10 9 -40 16 -68 19 -82 122
-360 139 -375 3 -3 17 -27 29 -55 86 -184 275 -402 490 -562 53 -40 102 -73
109 -73 6 0 14 -6 16 -12 6 -15 9 56 12 327 1 110 6 277 11 370 4 94 8 258 9
366 l0 196 -30 44 c-16 24 -55 72 -86 105 -31 34 -71 87 -88 118 -29 50 -40
76 -58 141 -3 11 -7 72 -8 135 -5 196 35 382 121 553 85 169 205 225 326 154
50 -29 132 -117 134 -142 0 -5 10 -32 23 -60 22 -49 73 -225 66 -225 -3 0 -1
-10 4 -23 21 -55 32 -259 19 -357 -10 -72 -54 -180 -93 -227 -5 -7 -19 -24
-30 -39 -11 -14 -26 -31 -33 -37 -49 -42 -72 -70 -92 -112 -23 -47 -23 -48
-17 -363 4 -175 9 -337 11 -362 2 -25 5 -183 6 -352 1 -217 5 -311 13 -321 19
-22 216 -95 307 -113 14 -3 41 -9 60 -14 19 -5 51 -11 70 -14 19 -3 44 -7 55
-10 11 -2 58 -7 105 -10 l85 -7 1 338 c1 308 8 616 19 798 2 39 5 120 6 181 3
105 2 113 -22 141 -13 16 -50 47 -82 69 -72 49 -105 91 -115 146 -9 51 -8 342
3 668 4 129 8 283 10 341 3 123 9 146 35 154 57 18 60 -9 60 -506 0 -265 4
-458 10 -473 12 -31 34 -33 53 -5 12 17 15 94 15 461 1 242 4 453 7 469 6 27
30 49 54 49 6 0 19 -10 30 -21 20 -21 20 -36 21 -468 0 -245 3 -462 6 -481 7
-45 17 -54 48 -46 l26 6 1 468 c0 257 2 475 4 485 8 45 51 61 76 30 11 -13 14
-103 15 -483 1 -491 4 -521 44 -500 16 8 28 30 36 63 1 4 2 209 3 456 1 394 3
452 17 465 21 22 51 20 63 -3 6 -11 12 -238 15 -592 5 -619 6 -598 -48 -653
-14 -13 -46 -39 -71 -57 -25 -18 -55 -48 -67 -67 -24 -39 -25 -77 -14 -502 4
-124 8 -304 10 -400 5 -206 17 -514 19 -516 4 -4 167 25 227 41 84 21 187 56
274 92 l70 29 1 200 c1 109 6 271 10 359 4 88 8 286 7 440 -2 1130 -1 1234 13
1420 14 191 35 235 107 221 49 -9 79 -31 115 -85 20 -31 44 -67 53 -81 39 -59
112 -301 125 -415 4 -32 9 -68 12 -80 8 -40 11 -383 3 -421 -4 -21 -11 -64
-14 -94 -11 -92 -29 -174 -55 -243 -5 -12 -8 -24 -8 -27 0 -13 -137 -214 -185
-269 -8 -10 -12 -46 -12 -100 2 -116 12 -403 20 -531 4 -58 7 -122 7 -142 l0
-37 71 49 c91 63 182 141 178 152 -1 5 1 7 6 4 12 -7 148 141 218 235 30 41
61 83 69 94 8 10 15 25 15 32 0 7 4 13 9 13 14 0 136 251 170 350 134 386 138
798 11 1180 -33 102 -115 280 -129 280 -4 0 -8 6 -8 13 0 18 -52 97 -64 97 -5
0 -8 4 -5 9 5 8 -62 103 -124 176 -170 200 -374 363 -595 477 -108 56 -268
119 -335 133 -8 2 -42 11 -75 19 -33 9 -76 19 -95 22 -19 3 -46 7 -60 9 -68
12 -325 26 -333 19z"/>
</g>
</svg>
